<svg xmlns="http://www.w3.org/2000/svg" xmlns:xlink="http://www.w3.org/1999/xlink" width="500" zoomAndPan="magnify" viewBox="0 0 375 374.999991" height="500" preserveAspectRatio="xMidYMid meet" version="1.0"><defs><g/><clipPath id="09d3497d70"><path d="M 128.683594 114 L 237 114 L 237 238.738281 L 128.683594 238.738281 Z M 128.683594 114 " clip-rule="nonzero"/></clipPath><clipPath id="7169a07bd9"><path d="M 191 108.488281 L 198 108.488281 L 198 116 L 191 116 Z M 191 108.488281 " clip-rule="nonzero"/></clipPath><clipPath id="3ec7e2db41"><path d="M 237 132 L 246.300781 132 L 246.300781 136.417969 L 237 136.417969 Z M 237 132 " clip-rule="nonzero"/></clipPath><clipPath id="aa45d31f61"><path d="M 63.84375 63.84375 L 311.15625 63.84375 L 311.15625 311.15625 L 63.84375 311.15625 Z M 63.84375 63.84375 " clip-rule="nonzero"/></clipPath><clipPath id="dc5dcafecf"><path d="M 187.5 63.84375 C 119.207031 63.84375 63.84375 119.207031 63.84375 187.5 C 63.84375 255.792969 119.207031 311.15625 187.5 311.15625 C 255.792969 311.15625 311.15625 255.792969 311.15625 187.5 C 311.15625 119.207031 255.792969 63.84375 187.5 63.84375 Z M 187.5 63.84375 " clip-rule="nonzero"/></clipPath></defs><g fill="#739669" fill-opacity="1"><g transform="translate(105.509871, 136.768739)"><g><path d="M 0.359375 -19.5625 L 7.78125 -10.140625 L 6.078125 -7.921875 L 0.28125 -10.390625 C 0.164062 -10.429688 0 -10.503906 -0.21875 -10.609375 C -0.4375 -10.710938 -0.675781 -10.828125 -0.9375 -10.953125 C -1.195312 -11.078125 -1.441406 -11.195312 -1.671875 -11.3125 C -1.898438 -11.4375 -2.082031 -11.535156 -2.21875 -11.609375 C -2.101562 -11.515625 -1.960938 -11.367188 -1.796875 -11.171875 C -1.628906 -10.984375 -1.445312 -10.78125 -1.25 -10.5625 C -1.0625 -10.351562 -0.882812 -10.148438 -0.71875 -9.953125 C -0.5625 -9.765625 -0.441406 -9.625 -0.359375 -9.53125 L 3.515625 -4.578125 L 1.8125 -2.359375 L -9.21875 -7.078125 L -7.75 -9 L -1.8125 -6.3125 C -1.632812 -6.226562 -1.421875 -6.128906 -1.171875 -6.015625 C -0.929688 -5.898438 -0.675781 -5.773438 -0.40625 -5.640625 C -0.144531 -5.515625 0.101562 -5.382812 0.34375 -5.25 C 0.582031 -5.125 0.785156 -5.007812 0.953125 -4.90625 C 0.816406 -5.050781 0.648438 -5.222656 0.453125 -5.421875 C 0.265625 -5.617188 0.078125 -5.820312 -0.109375 -6.03125 C -0.296875 -6.238281 -0.46875 -6.4375 -0.625 -6.625 C -0.78125 -6.8125 -0.898438 -6.96875 -0.984375 -7.09375 L -5.140625 -12.390625 L -3.71875 -14.234375 L 2.5 -11.625 C 2.625 -11.5625 2.796875 -11.476562 3.015625 -11.375 C 3.234375 -11.269531 3.472656 -11.148438 3.734375 -11.015625 C 3.992188 -10.890625 4.242188 -10.765625 4.484375 -10.640625 C 4.722656 -10.515625 4.925781 -10.398438 5.09375 -10.296875 C 4.914062 -10.484375 4.691406 -10.71875 4.421875 -11 C 4.160156 -11.28125 3.90625 -11.566406 3.65625 -11.859375 C 3.40625 -12.148438 3.195312 -12.398438 3.03125 -12.609375 L -1.109375 -17.640625 Z M 0.359375 -19.5625 "/></g></g></g><g fill="#739669" fill-opacity="1"><g transform="translate(118.600482, 121.00672)"><g><path d="M 1.0625 -1.015625 L -6.9375 -9.453125 L -5.15625 -11.140625 L 2.84375 -2.703125 Z M 1.0625 -1.015625 "/></g></g></g><g fill="#739669" fill-opacity="1"><g transform="translate(126.232522, 114.042505)"><g><path d="M 4.78125 -7.546875 C 5.195312 -6.984375 5.421875 -6.398438 5.453125 -5.796875 C 5.484375 -5.191406 5.320312 -4.585938 4.96875 -3.984375 C 4.625 -3.378906 4.082031 -2.804688 3.34375 -2.265625 C 3.019531 -2.023438 2.6875 -1.8125 2.34375 -1.625 C 2.007812 -1.445312 1.664062 -1.289062 1.3125 -1.15625 C 0.96875 -1.03125 0.625 -0.9375 0.28125 -0.875 L -1.0625 -2.71875 C -0.488281 -2.851562 0.09375 -3.019531 0.6875 -3.21875 C 1.289062 -3.414062 1.828125 -3.6875 2.296875 -4.03125 C 2.617188 -4.257812 2.847656 -4.488281 2.984375 -4.71875 C 3.117188 -4.957031 3.175781 -5.179688 3.15625 -5.390625 C 3.132812 -5.609375 3.050781 -5.8125 2.90625 -6 C 2.726562 -6.238281 2.5 -6.382812 2.21875 -6.4375 C 1.945312 -6.488281 1.617188 -6.484375 1.234375 -6.421875 C 0.847656 -6.359375 0.425781 -6.285156 -0.03125 -6.203125 C -0.320312 -6.140625 -0.648438 -6.085938 -1.015625 -6.046875 C -1.378906 -6.003906 -1.753906 -6.003906 -2.140625 -6.046875 C -2.523438 -6.097656 -2.90625 -6.21875 -3.28125 -6.40625 C -3.664062 -6.601562 -4.015625 -6.914062 -4.328125 -7.34375 C -4.742188 -7.90625 -4.96875 -8.476562 -5 -9.0625 C -5.03125 -9.65625 -4.882812 -10.234375 -4.5625 -10.796875 C -4.25 -11.359375 -3.769531 -11.878906 -3.125 -12.359375 C -2.632812 -12.710938 -2.125 -12.992188 -1.59375 -13.203125 C -1.070312 -13.421875 -0.488281 -13.597656 0.15625 -13.734375 L 0.640625 -11.71875 C 0.0859375 -11.570312 -0.390625 -11.421875 -0.796875 -11.265625 C -1.210938 -11.117188 -1.597656 -10.914062 -1.953125 -10.65625 C -2.191406 -10.476562 -2.367188 -10.28125 -2.484375 -10.0625 C -2.609375 -9.851562 -2.660156 -9.644531 -2.640625 -9.4375 C -2.628906 -9.226562 -2.554688 -9.03125 -2.421875 -8.84375 C -2.265625 -8.625 -2.0625 -8.484375 -1.8125 -8.421875 C -1.570312 -8.367188 -1.269531 -8.367188 -0.90625 -8.421875 C -0.539062 -8.472656 -0.0859375 -8.546875 0.453125 -8.640625 C 1.085938 -8.773438 1.664062 -8.84375 2.1875 -8.84375 C 2.707031 -8.851562 3.179688 -8.757812 3.609375 -8.5625 C 4.035156 -8.363281 4.425781 -8.023438 4.78125 -7.546875 Z M 4.78125 -7.546875 "/></g></g></g><g fill="#739669" fill-opacity="1"><g transform="translate(137.551019, 106.122733)"><g><path d="M 7.1875 -3.859375 L 1.296875 -0.6875 L -4.203125 -10.921875 L 1.6875 -14.09375 L 2.640625 -12.328125 L -1.09375 -10.328125 L 0.125 -8.0625 L 3.59375 -9.921875 L 4.546875 -8.15625 L 1.078125 -6.296875 L 2.5 -3.65625 L 6.234375 -5.65625 Z M 7.1875 -3.859375 "/></g></g></g><g fill="#739669" fill-opacity="1"><g transform="translate(150.154347, 99.855911)"><g/></g></g><g fill="#739669" fill-opacity="1"><g transform="translate(158.777991, 96.641718)"><g><path d="M 3.765625 -0.984375 L 1.421875 -0.375 L -1.515625 -11.625 L 4.921875 -13.296875 L 5.4375 -11.34375 L 1.34375 -10.28125 L 2.09375 -7.375 L 5.90625 -8.375 L 6.421875 -6.421875 L 2.609375 -5.421875 Z M 3.765625 -0.984375 "/></g></g></g><g fill="#739669" fill-opacity="1"><g transform="translate(172.296074, 93.539523)"><g><path d="M 1.453125 -0.1875 L -0.078125 -11.71875 L 2.359375 -12.046875 L 3.890625 -0.515625 Z M 1.453125 -0.1875 "/></g></g></g><g fill="#739669" fill-opacity="1"><g transform="translate(182.455677, 92.262032)"><g><path d="M 11.78125 0.15625 L 8.640625 0.109375 L 3.6875 -8.75 L 3.625 -8.75 C 3.644531 -8.382812 3.660156 -8.015625 3.671875 -7.640625 C 3.679688 -7.265625 3.691406 -6.894531 3.703125 -6.53125 C 3.710938 -6.164062 3.726562 -5.796875 3.75 -5.421875 L 3.671875 0.046875 L 1.46875 0.015625 L 1.625 -11.609375 L 4.734375 -11.5625 L 9.65625 -2.796875 L 9.703125 -2.796875 C 9.703125 -3.148438 9.695312 -3.503906 9.6875 -3.859375 C 9.675781 -4.222656 9.664062 -4.582031 9.65625 -4.9375 C 9.65625 -5.289062 9.648438 -5.644531 9.640625 -6 L 9.71875 -11.5 L 11.9375 -11.46875 Z M 11.78125 0.15625 "/></g></g></g><g fill="#739669" fill-opacity="1"><g transform="translate(200.363155, 92.988893)"><g><path d="M 8.4375 1.59375 L 8.109375 -1.28125 L 3.953125 -2.078125 L 2.609375 0.484375 L 0 0 L 6.1875 -10.703125 L 9.140625 -10.15625 L 11.046875 2.078125 Z M 7.90625 -3.421875 L 7.578125 -6.234375 C 7.566406 -6.421875 7.546875 -6.660156 7.515625 -6.953125 C 7.484375 -7.242188 7.453125 -7.539062 7.421875 -7.84375 C 7.390625 -8.15625 7.367188 -8.421875 7.359375 -8.640625 C 7.265625 -8.441406 7.140625 -8.195312 6.984375 -7.90625 C 6.835938 -7.613281 6.691406 -7.332031 6.546875 -7.0625 C 6.410156 -6.789062 6.316406 -6.597656 6.265625 -6.484375 L 4.9375 -3.984375 Z M 7.90625 -3.421875 "/></g></g></g><g fill="#739669" fill-opacity="1"><g transform="translate(215.956217, 96.25154)"><g><path d="M 11.03125 4.140625 L 8.09375 3.03125 L 6.4375 -6.96875 L 6.390625 -7 C 6.285156 -6.644531 6.171875 -6.289062 6.046875 -5.9375 C 5.921875 -5.582031 5.800781 -5.226562 5.6875 -4.875 C 5.582031 -4.53125 5.472656 -4.179688 5.359375 -3.828125 L 3.4375 1.296875 L 1.375 0.515625 L 5.46875 -10.359375 L 8.375 -9.265625 L 10.046875 0.65625 L 10.078125 0.671875 C 10.203125 0.328125 10.316406 -0.0078125 10.421875 -0.34375 C 10.535156 -0.6875 10.648438 -1.023438 10.765625 -1.359375 C 10.878906 -1.691406 10.992188 -2.03125 11.109375 -2.375 L 13.046875 -7.515625 L 15.125 -6.734375 Z M 11.03125 4.140625 "/></g></g></g><g fill="#739669" fill-opacity="1"><g transform="translate(232.56215, 103.041647)"><g><path d="M 10.4375 -5.171875 C 10.019531 -5.421875 9.609375 -5.554688 9.203125 -5.578125 C 8.804688 -5.597656 8.410156 -5.523438 8.015625 -5.359375 C 7.628906 -5.191406 7.257812 -4.925781 6.90625 -4.5625 C 6.5625 -4.207031 6.234375 -3.769531 5.921875 -3.25 C 5.515625 -2.53125 5.25 -1.867188 5.125 -1.265625 C 5.007812 -0.660156 5.054688 -0.125 5.265625 0.34375 C 5.484375 0.820312 5.890625 1.238281 6.484375 1.59375 C 6.890625 1.820312 7.320312 2.007812 7.78125 2.15625 C 8.25 2.3125 8.769531 2.445312 9.34375 2.5625 L 8.296875 4.34375 C 7.753906 4.257812 7.242188 4.132812 6.765625 3.96875 C 6.285156 3.800781 5.78125 3.5625 5.25 3.25 C 4.21875 2.644531 3.492188 1.9375 3.078125 1.125 C 2.660156 0.3125 2.515625 -0.570312 2.640625 -1.53125 C 2.773438 -2.488281 3.144531 -3.484375 3.75 -4.515625 C 4.1875 -5.273438 4.691406 -5.914062 5.265625 -6.4375 C 5.835938 -6.957031 6.457031 -7.332031 7.125 -7.5625 C 7.789062 -7.789062 8.492188 -7.859375 9.234375 -7.765625 C 9.972656 -7.671875 10.722656 -7.398438 11.484375 -6.953125 C 11.984375 -6.671875 12.441406 -6.320312 12.859375 -5.90625 C 13.273438 -5.488281 13.65625 -5.03125 14 -4.53125 L 12.28125 -3.21875 C 12.019531 -3.601562 11.738281 -3.972656 11.4375 -4.328125 C 11.132812 -4.679688 10.800781 -4.960938 10.4375 -5.171875 Z M 10.4375 -5.171875 "/></g></g></g><g fill="#739669" fill-opacity="1"><g transform="translate(245.499881, 111.153412)"><g><path d="M 1.15625 0.90625 L 8.28125 -8.28125 L 10.21875 -6.78125 L 3.09375 2.40625 Z M 1.15625 0.90625 "/></g></g></g><g fill="#739669" fill-opacity="1"><g transform="translate(253.54746, 117.552537)"><g><path d="M 6.015625 6.125 L 7.390625 3.578125 L 4.421875 0.5625 L 1.859375 1.890625 L 0 0 L 11.203125 -5.25 L 13.3125 -3.125 L 7.875 8.015625 Z M 8.4375 1.703125 L 9.78125 -0.796875 C 9.882812 -0.953125 10.003906 -1.160156 10.140625 -1.421875 C 10.285156 -1.679688 10.429688 -1.945312 10.578125 -2.21875 C 10.734375 -2.488281 10.863281 -2.710938 10.96875 -2.890625 C 10.789062 -2.785156 10.550781 -2.65625 10.25 -2.5 C 9.957031 -2.34375 9.675781 -2.191406 9.40625 -2.046875 C 9.144531 -1.898438 8.957031 -1.800781 8.84375 -1.75 L 6.328125 -0.453125 Z M 8.4375 1.703125 "/></g></g></g><g fill="#739669" fill-opacity="1"><g transform="translate(264.452031, 129.285117)"><g><path d="M 0.859375 1.1875 L 10.296875 -5.59375 L 11.734375 -3.59375 L 3.953125 2 L 6.703125 5.828125 L 5.046875 7.015625 Z M 0.859375 1.1875 "/></g></g></g><g clip-path="url(#09d3497d70)"><path fill="#495436" d="M 218.449219 157.492188 C 216.105469 157.832031 213.710938 157.652344 211.355469 157.832031 C 207.902344 158.164062 205.027344 158.746094 201.710938 159.765625 C 199.679688 160.347656 197.460938 160.859375 195.207031 161.171875 C 198.472656 161.734375 201.914062 162.40625 206.105469 164.644531 C 198.25 161.238281 193.535156 162.898438 187.128906 161.207031 C 186.789062 161.152344 186.453125 161.085938 186.121094 161.007812 C 182.730469 160.039062 179.253906 159.066406 175.757812 158.574219 C 174.082031 158.339844 172.535156 158.183594 170.886719 158.660156 C 169.660156 159.097656 167.707031 160.433594 165.808594 161.734375 C 166.695312 161.882812 167.523438 162.167969 168.382812 162.683594 C 170.480469 164.015625 174.765625 165.574219 177.230469 165.945312 C 174.644531 166.015625 170.222656 164.746094 167.804688 163.738281 C 166.585938 163.222656 165.46875 163.171875 164.167969 163.324219 C 163.796875 163.382812 163.445312 163.453125 163.101562 163.542969 C 162.808594 163.726562 162.527344 163.894531 162.269531 164.042969 C 161.394531 164.550781 160.839844 165.0625 160.238281 165.871094 C 159.617188 166.757812 159.269531 167.550781 158.949219 168.582031 C 158.617188 169.800781 158.441406 170.949219 158.371094 172.109375 C 158.550781 171.925781 158.75 171.746094 158.972656 171.5625 C 160.816406 170.230469 163.113281 169.550781 165.238281 168.78125 C 163.355469 169.777344 161.214844 170.796875 159.777344 172.40625 C 159.199219 173.089844 158.914062 173.648438 158.675781 174.507812 C 158.5625 175.015625 158.503906 175.496094 158.480469 175.976562 L 158.484375 175.996094 C 158.804688 178.613281 157.6875 182.027344 158.644531 184.617188 C 160.03125 186.972656 159.5625 189.394531 160.5625 191.179688 C 160.71875 191.457031 161.617188 192.941406 161.761719 193.214844 C 160.507812 192.804688 159.566406 191.746094 158.628906 190.789062 C 157.269531 189.394531 156.042969 189.191406 154.957031 188.015625 C 154.375 187.355469 153.949219 186.675781 153.503906 185.917969 C 152.339844 183.964844 151.574219 182.519531 149.878906 180.921875 C 151.308594 182.722656 151.839844 184.25 152.660156 186.34375 C 153.023438 187.234375 153.363281 188.023438 153.875 188.84375 C 154.449219 189.707031 154.976562 190.257812 155.878906 190.789062 C 158.058594 192.265625 159.214844 193.828125 160.65625 195.429688 C 162.738281 197.742188 166.257812 199.609375 167.695312 201.746094 C 168.710938 203.261719 170.289062 203.714844 171.546875 205.003906 C 172.207031 205.675781 172.847656 206.488281 173.574219 207.382812 C 173.84375 207.710938 174.121094 208.050781 174.417969 208.398438 C 174.265625 208.367188 174.113281 208.335938 173.957031 208.304688 C 172.753906 208.015625 171.933594 207.507812 170.804688 207.066406 C 169.851562 206.695312 168.804688 206.6875 167.804688 206.257812 C 166.671875 205.765625 165.605469 204.945312 164.382812 204.371094 C 162.859375 203.792969 162.058594 203.285156 161.082031 201.917969 C 160.328125 200.867188 159.035156 200.390625 158.128906 199.296875 C 158.085938 199.246094 158.042969 199.191406 158 199.136719 C 158.035156 199.191406 158.074219 199.238281 158.109375 199.289062 C 158.609375 199.960938 159.179688 200.433594 159.699219 200.894531 C 159.121094 200.445312 158.46875 199.964844 157.925781 199.191406 C 158.46875 199.964844 159.121094 200.445312 159.699219 200.894531 C 160.113281 201.269531 160.496094 201.636719 160.785156 202.105469 C 161.8125 203.746094 162.492188 204.105469 164.0625 205.027344 C 165.28125 205.707031 166.203125 206.570312 167.351562 207.222656 C 168.425781 207.746094 169.308594 207.863281 170.308594 208.304688 C 171.535156 208.90625 172.21875 209.503906 173.617188 209.902344 C 174.789062 210.289062 176.0625 211.621094 177.402344 212.324219 C 180.589844 213.992188 183.988281 215.570312 186.09375 217.464844 C 187.683594 218.949219 188.644531 220.207031 190.511719 221.351562 C 189.484375 221.234375 188.75 220.816406 187.738281 220.910156 C 189.375 221.398438 189.625 222.414062 192.015625 222.558594 C 193.4375 222.625 194.976562 221.816406 196.488281 221.5625 C 198.15625 221.28125 199.6875 221.34375 201.882812 221.417969 C 204.203125 221.609375 207.125 221.769531 209.355469 221.074219 C 207.191406 222.121094 204.261719 222.195312 201.882812 222.363281 C 198.261719 222.515625 197.304688 222.78125 195.902344 223.421875 C 196.945312 223.675781 197.996094 223.859375 199.039062 223.964844 C 201.757812 224.140625 204.589844 224.121094 207.316406 224.097656 C 225.800781 224.308594 217.011719 231.636719 234.925781 228.402344 C 217.679688 232.40625 224.21875 225.878906 207.433594 226.535156 C 204.109375 226.800781 201.179688 226.996094 197.84375 226.570312 C 196.523438 226.402344 194.902344 226.34375 193.808594 225.382812 C 194.40625 226.492188 196.5625 226.992188 197.738281 227.273438 C 202.3125 228.28125 202 229.660156 205.230469 232.078125 C 206.039062 232.652344 206.722656 233.03125 207.675781 233.328125 C 208.820312 233.652344 209.679688 233.660156 210.839844 233.375 C 209.6875 233.804688 208.796875 233.898438 207.582031 233.722656 C 206.535156 233.527344 205.765625 233.210938 204.828125 232.71875 C 204.304688 232.414062 203.859375 232.109375 203.453125 231.8125 C 203.898438 232.683594 204.246094 233.601562 204.585938 234.617188 C 204.726562 235.058594 204.863281 235.429688 205.097656 235.832031 C 205.316406 236.175781 205.507812 236.386719 205.84375 236.625 C 206.71875 237.195312 207.753906 237.292969 208.773438 237.363281 C 207.703125 237.375 206.660156 237.378906 205.671875 236.914062 C 205.261719 236.6875 205.007812 236.464844 204.71875 236.097656 C 204.402344 235.6875 204.210938 235.308594 204.011719 234.835938 C 203.25 233.089844 202.464844 231.621094 201.019531 230.355469 C 200.078125 229.558594 199.320312 229.191406 198.121094 228.941406 C 197.378906 228.796875 196.683594 228.75 195.964844 228.695312 C 193.898438 228.535156 193.621094 227.453125 191.910156 227.050781 C 192.777344 227.453125 193.238281 228.007812 193.875 228.597656 C 194.507812 229.183594 194.921875 229.332031 195.464844 230.039062 C 196.242188 231.058594 197.152344 232.054688 197.882812 233.140625 C 199.222656 235.121094 199.390625 236.457031 199.394531 238.738281 C 198.441406 235.347656 196.71875 233.59375 193.953125 231.460938 C 192.242188 230.140625 190.5625 229.007812 188.921875 226.761719 C 187.222656 224.433594 186.453125 223.804688 184.996094 222.375 C 182.464844 219.886719 180.207031 219.546875 177.453125 217.597656 C 179.15625 219.652344 180.277344 219.792969 181.519531 222.066406 C 181.796875 222.582031 182.273438 223.144531 182.652344 223.730469 C 182.902344 224.117188 183.101562 224.953125 183.570312 225.746094 C 184.183594 226.777344 185.070312 227.785156 185.265625 228.191406 C 186.09375 229.878906 186.609375 231.191406 186.6875 233.101562 C 186.613281 235.308594 185.910156 236.835938 184.773438 238.703125 C 185.484375 236.824219 185.855469 235.253906 185.347656 233.277344 C 184.914062 231.738281 184.195312 230.757812 183.210938 229.53125 C 181.515625 227.59375 179.820312 226.023438 178.746094 224.445312 C 178.984375 223.464844 179.042969 222.757812 178.855469 221.824219 C 178.851562 222.441406 178.6875 223.167969 178.28125 224.152344 C 177.453125 226.160156 176.492188 227.269531 176.011719 229.710938 C 175.335938 226.5625 175.78125 226.753906 176.511719 223.628906 C 176.699219 222.582031 175.859375 221.738281 175.742188 220.675781 C 175.714844 220.09375 174.988281 220.066406 174.71875 219.558594 C 174.175781 218.707031 173.636719 218.515625 173.183594 218.128906 C 172.664062 217.6875 171.6875 216.269531 171.476562 217.90625 C 171.390625 218.546875 170.445312 218.667969 170.65625 219.246094 C 170.492188 219.882812 170.757812 220.613281 170.679688 221.320312 C 170.507812 222.878906 170.609375 222.652344 170.667969 223.160156 C 170.695312 223.421875 170.453125 224.003906 170.707031 224.875 C 171.605469 227.964844 172.203125 231.078125 172.179688 234.878906 C 171.351562 230.128906 169.421875 226.492188 167.359375 223.035156 C 167.859375 222.074219 167.839844 221.398438 167.566406 220.328125 C 167.625 221.878906 167.035156 222.527344 166.492188 222.890625 C 165.445312 223.582031 164.285156 224.179688 163.417969 224.980469 C 162.816406 225.515625 162.425781 225.972656 162.121094 226.730469 C 161.710938 227.742188 161.761719 228.597656 162.015625 229.644531 C 161.351562 228.625 160.988281 227.796875 160.882812 226.578125 C 160.863281 225.476562 161.082031 224.683594 161.535156 223.6875 C 162.320312 222.109375 163.488281 220.820312 164.148438 219.390625 C 164.324219 219.046875 164.484375 218.730469 164.585938 218.378906 C 165.367188 216.570312 165.667969 214.582031 165.414062 213.011719 C 165.371094 213.992188 165.261719 214.851562 164.804688 215.730469 C 164.5625 216.253906 164.550781 216.839844 163.9375 217.332031 C 163.648438 216.546875 163.097656 215.382812 162.738281 214.492188 C 161.382812 211.109375 162.410156 208.527344 160 205.703125 C 160.71875 207.515625 160.953125 208.558594 160.90625 209.328125 C 160.753906 211.980469 161.335938 211.699219 161.433594 214.375 C 161.445312 214.742188 161.527344 215.160156 161.546875 215.671875 C 161.722656 217.046875 161.742188 218.140625 161.410156 219.492188 C 161.160156 220.519531 160.832031 221.226562 160.230469 222.09375 C 159.179688 223.535156 157.964844 224.5625 156.9375 226.070312 C 157.519531 224.472656 158.484375 223.097656 159.113281 221.511719 C 159.394531 220.71875 159.503906 220.121094 159.511719 219.273438 C 159.457031 218.34375 159.417969 218.152344 159.515625 217.195312 C 159.707031 215.753906 159.796875 215.527344 159.644531 213.996094 C 159.503906 216.066406 158.558594 217.160156 156.890625 218.351562 C 155.09375 219.574219 153.53125 220.332031 152.199219 222.132812 C 153.210938 220.078125 154.589844 219.066406 156.152344 217.492188 C 156.539062 217.089844 156.875 216.722656 157.164062 216.308594 C 158.226562 214.796875 157.457031 212.816406 156.976562 211.230469 C 156.707031 210.25 156.535156 209.417969 156.46875 208.402344 C 156.414062 206.851562 156.234375 205.976562 155.804688 205.335938 C 154.917969 204.019531 152.304688 202.898438 154.355469 200.433594 C 153.859375 200.605469 153.507812 200.796875 153.113281 201.144531 C 152.734375 201.515625 152.523438 201.855469 152.339844 202.351562 C 152.152344 202.902344 152.113281 203.34375 152.15625 203.921875 C 152.171875 204.121094 152.195312 204.304688 152.226562 204.484375 C 152.234375 204.992188 152.480469 205.621094 152.746094 206.160156 C 152.941406 206.558594 153.128906 206.960938 153.300781 207.382812 C 153.757812 208.554688 153.96875 209.449219 153.890625 210.714844 C 153.796875 211.730469 153.585938 212.464844 153.035156 213.332031 C 152.566406 214.035156 152.105469 214.464844 151.433594 214.96875 C 150.125 215.886719 148.898438 216.460938 147.660156 217.53125 C 148.542969 216.25 149.707031 215.335938 150.644531 214.144531 C 151.050781 213.636719 151.320312 213.21875 151.53125 212.597656 C 151.710938 211.945312 151.710938 211.441406 151.617188 210.773438 C 151.457031 209.984375 151.148438 209.46875 150.679688 208.824219 C 150.542969 208.519531 149.226562 207.125 148.917969 206.738281 C 147.988281 205.597656 147.148438 204.242188 147.066406 202.777344 C 146.957031 200.757812 147.589844 199.226562 147.992188 197.171875 C 148.371094 195.238281 148.976562 194.320312 149.390625 192.644531 C 149.582031 191.714844 149.585938 191.027344 149.410156 190.089844 C 149.390625 190.757812 149.160156 191.875 148.777344 192.429688 C 148.621094 192.714844 148.460938 192.972656 148.289062 193.214844 C 148.164062 190.488281 147.402344 188.027344 147.199219 185.164062 C 147.035156 182.832031 146.507812 180.847656 145.261719 178.550781 C 143.992188 176.585938 142.675781 175.246094 141 173.945312 C 140.847656 174 140.703125 174.054688 140.5625 174.113281 C 138.585938 174.84375 137.503906 175.167969 135.347656 174.777344 C 134.214844 174.472656 133.609375 173.816406 132.566406 173.371094 C 131.996094 173.152344 131.578125 173.109375 130.972656 173.21875 C 130.074219 173.386719 129.398438 173.820312 128.683594 174.371094 C 129.367188 173.714844 129.988281 173.207031 130.875 172.863281 C 131.558594 172.65625 132.050781 172.636719 132.742188 172.789062 C 133.691406 173.046875 134.628906 173.65625 135.507812 173.75 C 137.199219 173.867188 138.082031 173.523438 139.390625 172.78125 C 137.316406 171.476562 135.195312 170.4375 133.121094 169.179688 C 132.347656 168.746094 131.613281 168.308594 130.988281 167.671875 C 130.757812 167.445312 130.578125 167.238281 130.4375 166.945312 C 130.332031 166.800781 130.277344 166.441406 130.289062 166.261719 C 130.355469 166.492188 130.453125 166.644531 130.613281 166.820312 C 130.675781 166.933594 131.140625 167.230469 131.265625 167.300781 C 131.765625 167.585938 132.988281 168.003906 133.546875 168.132812 C 135.765625 168.675781 137.984375 169.179688 140.152344 169.894531 C 141.222656 170.25 142.167969 170.894531 143.144531 171.453125 C 143.894531 172.003906 144.5625 172.621094 145.300781 173.152344 C 147.3125 174.597656 150.699219 178.34375 152.136719 180.535156 C 152.949219 181.707031 154.183594 183.605469 155.429688 184.808594 C 156.320312 185.671875 156.898438 186.136719 157.769531 187.140625 C 157.132812 186.023438 156.453125 185.078125 155.808594 184.007812 C 154.972656 182.628906 154.101562 180.78125 153.605469 179.671875 C 153.355469 179.121094 152.753906 178.578125 152.457031 178.089844 C 151.941406 177.164062 151.089844 176.628906 150.539062 175.78125 C 149.226562 173.695312 148.136719 172.550781 146.953125 170.378906 C 146.195312 168.984375 146.167969 166.625 145.527344 165.804688 C 144.925781 165.027344 144.15625 164.421875 143.273438 163.78125 C 141.570312 162.605469 139.894531 161.691406 138.359375 160.273438 C 137.398438 159.359375 136.855469 158.582031 136.386719 157.34375 C 136.175781 157.027344 135.792969 155.074219 135.691406 154.582031 C 135.292969 152.640625 134.890625 151.273438 133.796875 150.035156 C 135.21875 151.144531 136.144531 152.128906 137.097656 154.113281 C 137.449219 154.921875 137.753906 155.679688 138.222656 156.433594 C 138.75 157.203125 139.226562 157.636719 140.011719 158.144531 C 141.296875 158.867188 142.800781 159.402344 144.226562 159.96875 C 144.625 160.496094 145.160156 161.148438 145.925781 162.035156 C 147.339844 163.714844 147.449219 165.429688 148.585938 167.050781 C 147.722656 165.03125 147.894531 163.433594 146.644531 161.445312 C 144.308594 158.207031 144.753906 157.988281 144.328125 156.027344 C 144.308594 155.644531 144.300781 155.257812 144.292969 154.863281 C 144.351562 151.417969 144.800781 148.816406 146.074219 145.601562 C 147.402344 142.566406 148.871094 140.472656 151.140625 138.28125 C 151.046875 138.074219 150.917969 137.898438 150.726562 137.695312 C 150.601562 137.457031 149.652344 136.890625 149.410156 136.695312 C 148.855469 136.320312 148.386719 135.996094 147.902344 135.519531 C 147.476562 135.160156 147.0625 134.339844 146.917969 133.804688 C 147.292969 134.386719 147.65625 134.710938 148.265625 135.035156 C 148.808594 135.3125 149.3125 135.457031 149.894531 135.628906 C 150.535156 135.816406 151.082031 135.980469 151.6875 136.273438 C 152.015625 136.40625 152.367188 136.671875 152.667969 136.972656 C 156.230469 134.34375 159.804688 133.53125 164.257812 132.90625 L 164.359375 132.894531 C 168.867188 125.761719 168.125 127.128906 175.269531 122.699219 C 168.875 127.320312 169.957031 126.96875 167.019531 132.652344 C 171.328125 132.320312 175.652344 132.265625 179.980469 132.109375 C 180.746094 132.082031 181.496094 132.050781 182.238281 132.019531 C 184.210938 128.019531 186.722656 121.464844 188.753906 118.582031 C 189.988281 116.957031 191.117188 116.265625 193.03125 115.605469 C 195.78125 114.824219 198.703125 114.632812 201.542969 114.449219 C 201.550781 114.449219 201.605469 114.441406 201.605469 114.441406 C 201.667969 114.4375 201.949219 114.363281 202.035156 114.34375 C 201.894531 114.386719 201.753906 114.429688 201.617188 114.472656 C 201.609375 114.472656 201.546875 114.484375 201.546875 114.484375 C 198.753906 114.828125 195.894531 115.195312 193.265625 116.246094 C 191.578125 116.953125 190.628906 117.628906 189.636719 119.175781 C 188.851562 120.628906 188.082031 122.597656 187.308594 124.726562 C 188.785156 123.929688 190.277344 123.335938 192.089844 122.960938 C 193.992188 122.59375 195.300781 122.617188 197.195312 122.910156 C 198.609375 123.136719 199.925781 123.453125 201.359375 123.542969 C 202.875 123.703125 204.621094 123.21875 205.960938 122.539062 C 204.382812 123.484375 203.199219 123.902344 201.367188 124.046875 C 199.898438 124.109375 198.558594 123.9375 197.105469 123.855469 C 195.351562 123.789062 194.15625 123.886719 192.460938 124.378906 C 190.070312 125.21875 188.09375 126.550781 186.101562 128.09375 C 185.636719 129.398438 185.160156 130.691406 184.675781 131.894531 C 196.308594 131.234375 205.242188 129.5 216.09375 122.871094 C 216.457031 122.640625 216.570312 122.714844 217 122.394531 C 216.640625 122.6875 216.464844 122.699219 216.140625 122.9375 C 208.789062 128.167969 202.222656 130.933594 194.9375 132.691406 C 195.988281 132.796875 197.058594 132.953125 198.152344 133.164062 C 202.160156 134.089844 206.113281 135.09375 210.1875 135.6875 C 219.417969 136.695312 227.082031 133.480469 236.914062 132.445312 C 226.894531 133.738281 219.320312 137.425781 210.066406 136.75 C 205.914062 136.328125 201.921875 135.488281 197.832031 134.683594 C 192.355469 133.921875 187.589844 134.4375 182.316406 134.882812 C 181.625 134.972656 180.925781 135.0625 180.214844 135.148438 C 175.117188 135.703125 169.992188 136.113281 164.957031 137.117188 C 161.398438 137.867188 158.152344 138.753906 155.484375 141.351562 C 155.1875 141.664062 154.90625 141.96875 154.648438 142.273438 C 158.28125 141.585938 159.292969 142.609375 163.90625 142.730469 C 168.859375 142.570312 171.652344 140.992188 178.21875 141.039062 C 170.785156 141.375 169.5 143.21875 163.972656 143.945312 C 158.714844 144.273438 158.101562 143.070312 152.726562 145.03125 C 152.296875 145.824219 151.933594 146.679688 151.597656 147.664062 C 150.839844 150.125 150.679688 152.09375 150.835938 154.65625 C 151.324219 159.648438 152.796875 163.632812 155.074219 167.882812 C 155.128906 167.710938 155.1875 167.535156 155.246094 167.355469 C 155.78125 165.90625 156.339844 164.832031 157.296875 163.609375 C 158.308594 162.398438 159.234375 161.644531 160.640625 160.921875 C 163.152344 159.632812 165.910156 157.566406 168.496094 156.40625 C 170.34375 154.875 170.621094 153.503906 171.746094 151.492188 C 172.464844 150.300781 173.101562 149.578125 174.210938 148.730469 C 175.835938 147.660156 177.386719 147.105469 179.246094 146.570312 C 177.523438 147.292969 176.070312 148.027344 174.722656 149.34375 C 173.839844 150.214844 173.386719 150.914062 172.925781 152.0625 C 172.382812 153.515625 172.160156 154.554688 171.707031 155.574219 C 173.203125 155.464844 174.597656 155.660156 176.199219 155.949219 C 178.054688 156.355469 179.90625 156.859375 181.738281 157.414062 C 183.957031 157.1875 185.214844 156.875 187.109375 155.671875 C 189.140625 154.347656 190.574219 153.210938 192.792969 152.015625 C 190.605469 153.601562 189.667969 154.730469 187.855469 156.578125 C 187.011719 157.390625 186.269531 157.96875 185.472656 158.414062 C 185.925781 158.644531 186.375 158.855469 186.820312 159.042969 C 191.128906 160.402344 197.082031 159.578125 201.355469 158.539062 C 204.792969 157.679688 207.769531 157.238281 211.3125 157.089844 C 213.949219 157.015625 216.054688 157.480469 218.449219 157.492188 " fill-opacity="1" fill-rule="nonzero"/></g><path fill="#a1bd66" d="M 208.0625 114.484375 C 208.011719 116.179688 207.339844 117.859375 206.042969 119.15625 C 204.75 120.449219 203.070312 121.121094 201.371094 121.171875 C 201.421875 119.476562 202.09375 117.792969 203.386719 116.5 C 204.683594 115.203125 206.363281 114.53125 208.0625 114.484375 " fill-opacity="1" fill-rule="evenodd"/><path fill="#a1bd66" d="M 215.273438 125.789062 C 216.496094 126.964844 218.152344 127.695312 219.984375 127.710938 C 221.8125 127.730469 223.484375 127.035156 224.730469 125.882812 C 223.507812 124.707031 221.851562 123.976562 220.019531 123.957031 C 218.191406 123.9375 216.519531 124.636719 215.273438 125.789062 " fill-opacity="1" fill-rule="evenodd"/><path fill="#a1bd66" d="M 214.746094 112.21875 C 215.921875 113.441406 216.652344 115.097656 216.671875 116.929688 C 216.6875 118.757812 215.992188 120.429688 214.839844 121.675781 C 213.664062 120.453125 212.933594 118.796875 212.914062 116.964844 C 212.894531 115.136719 213.59375 113.464844 214.746094 112.21875 " fill-opacity="1" fill-rule="evenodd"/><path fill="#a1bd66" d="M 225.804688 116.007812 C 224.125 115.78125 222.355469 116.171875 220.871094 117.242188 C 219.382812 118.308594 218.449219 119.859375 218.125 121.527344 C 219.808594 121.75 221.574219 121.359375 223.0625 120.292969 C 224.550781 119.222656 225.484375 117.671875 225.804688 116.007812 " fill-opacity="1" fill-rule="evenodd"/><path fill="#a1bd66" d="M 182.351562 109.824219 C 182.402344 111.519531 183.074219 113.203125 184.367188 114.496094 C 185.664062 115.789062 187.34375 116.460938 189.039062 116.511719 C 188.992188 114.816406 188.320312 113.132812 187.023438 111.839844 C 185.730469 110.546875 184.046875 109.871094 182.351562 109.824219 " fill-opacity="1" fill-rule="evenodd"/><g clip-path="url(#7169a07bd9)"><path fill="#a1bd66" d="M 197.84375 108.425781 C 197.796875 110.121094 197.121094 111.800781 195.828125 113.09375 C 194.53125 114.390625 192.851562 115.0625 191.15625 115.113281 C 191.207031 113.417969 191.875 111.734375 193.171875 110.441406 C 194.464844 109.144531 196.148438 108.472656 197.84375 108.425781 " fill-opacity="1" fill-rule="evenodd"/></g><path fill="#a1bd66" d="M 208.367188 110.308594 C 207.804688 111.910156 206.65625 113.308594 205.03125 114.152344 C 203.40625 114.996094 201.601562 115.128906 199.96875 114.660156 C 200.527344 113.0625 201.675781 111.660156 203.300781 110.816406 C 204.929688 109.972656 206.734375 109.839844 208.367188 110.308594 " fill-opacity="1" fill-rule="evenodd"/><path fill="#a1bd66" d="M 199.660156 115.660156 C 199.609375 117.355469 198.9375 119.039062 197.640625 120.332031 C 196.347656 121.628906 194.667969 122.296875 192.96875 122.347656 C 193.019531 120.652344 193.691406 118.96875 194.988281 117.675781 C 196.28125 116.382812 197.960938 115.710938 199.660156 115.660156 " fill-opacity="1" fill-rule="evenodd"/><path fill="#a1bd66" d="M 216.257812 159.03125 C 216.777344 160.648438 217.890625 162.074219 219.492188 162.960938 C 221.097656 163.84375 222.898438 164.023438 224.542969 163.597656 C 224.023438 161.980469 222.910156 160.554688 221.304688 159.667969 C 219.703125 158.785156 217.902344 158.609375 216.257812 159.03125 " fill-opacity="1" fill-rule="evenodd"/><path fill="#a1bd66" d="M 215.667969 156.011719 C 215.164062 154.390625 215.253906 152.582031 216.0625 150.9375 C 216.867188 149.292969 218.238281 148.113281 219.828125 147.515625 C 220.332031 149.136719 220.238281 150.945312 219.433594 152.589844 C 218.628906 154.234375 217.253906 155.414062 215.667969 156.011719 " fill-opacity="1" fill-rule="evenodd"/><path fill="#a1bd66" d="M 218.925781 156.933594 C 219.976562 155.597656 221.515625 154.644531 223.324219 154.375 C 225.136719 154.101562 226.886719 154.5625 228.28125 155.527344 C 227.234375 156.863281 225.695312 157.816406 223.882812 158.089844 C 222.074219 158.359375 220.320312 157.902344 218.925781 156.933594 " fill-opacity="1" fill-rule="evenodd"/><g clip-path="url(#3ec7e2db41)"><path fill="#a1bd66" d="M 237.089844 132.941406 C 238.027344 134.355469 239.484375 135.429688 241.265625 135.851562 C 243.046875 136.265625 244.832031 135.949219 246.300781 135.097656 C 245.363281 133.683594 243.90625 132.609375 242.125 132.191406 C 240.339844 131.773438 238.558594 132.089844 237.089844 132.941406 " fill-opacity="1" fill-rule="evenodd"/></g><path fill="#a1bd66" d="M 239.355469 140.070312 C 239.078125 138.398438 238.183594 136.824219 236.722656 135.71875 C 235.265625 134.609375 233.507812 134.171875 231.820312 134.355469 C 232.101562 136.027344 232.992188 137.601562 234.453125 138.710938 C 235.910156 139.816406 237.667969 140.253906 239.355469 140.070312 " fill-opacity="1" fill-rule="evenodd"/><path fill="#a1bd66" d="M 231.628906 132.035156 C 231.652344 130.335938 232.300781 128.644531 233.578125 127.332031 C 234.855469 126.019531 236.523438 125.324219 238.222656 125.25 C 238.195312 126.949219 237.546875 128.640625 236.269531 129.953125 C 234.996094 131.265625 233.320312 131.960938 231.628906 132.035156 " fill-opacity="1" fill-rule="evenodd"/><path fill="#a1bd66" d="M 189.480469 152.984375 C 188.167969 151.910156 187.25 150.347656 187.015625 148.53125 C 186.785156 146.714844 187.28125 144.972656 188.28125 143.601562 C 189.59375 144.679688 190.511719 146.238281 190.742188 148.054688 C 190.976562 149.871094 190.476562 151.613281 189.480469 152.984375 " fill-opacity="1" fill-rule="evenodd"/><path fill="#a1bd66" d="M 191.898438 154.65625 C 193.128906 155.824219 194.789062 156.542969 196.621094 156.550781 C 198.453125 156.554688 200.121094 155.847656 201.359375 154.6875 C 200.128906 153.519531 198.464844 152.800781 196.636719 152.792969 C 194.804688 152.785156 193.136719 153.496094 191.898438 154.65625 " fill-opacity="1" fill-rule="evenodd"/><path fill="#a1bd66" d="M 193.539062 151.148438 C 193.785156 149.46875 194.644531 147.875 196.082031 146.738281 C 197.515625 145.601562 199.261719 145.125 200.953125 145.269531 C 200.710938 146.949219 199.847656 148.546875 198.414062 149.679688 C 196.976562 150.816406 195.230469 151.292969 193.539062 151.148438 " fill-opacity="1" fill-rule="evenodd"/><path fill="#a1bd66" d="M 173.453125 112.800781 C 172.109375 113.832031 171.136719 115.363281 170.84375 117.171875 C 170.554688 118.976562 170.996094 120.734375 171.949219 122.140625 C 173.292969 121.101562 174.265625 119.574219 174.554688 117.769531 C 174.84375 115.960938 174.40625 114.203125 173.453125 112.800781 " fill-opacity="1" fill-rule="evenodd"/><path fill="#a1bd66" d="M 174.222656 125.25 C 175.558594 124.203125 177.277344 123.640625 179.105469 123.804688 C 180.929688 123.96875 182.519531 124.832031 183.644531 126.101562 C 182.3125 127.148438 180.589844 127.710938 178.765625 127.546875 C 176.941406 127.382812 175.347656 126.519531 174.222656 125.25 " fill-opacity="1" fill-rule="evenodd"/><path fill="#a1bd66" d="M 176.273438 121.914062 C 176.855469 120.320312 178.023438 118.933594 179.65625 118.113281 C 181.292969 117.289062 183.101562 117.179688 184.726562 117.664062 C 184.144531 119.261719 182.980469 120.644531 181.34375 121.46875 C 179.707031 122.292969 177.902344 122.402344 176.273438 121.914062 " fill-opacity="1" fill-rule="evenodd"/><path fill="#a1bd66" d="M 200.136719 163.558594 C 200.007812 165.25 200.503906 166.996094 201.652344 168.417969 C 202.804688 169.839844 204.40625 170.683594 206.089844 170.910156 C 206.21875 169.21875 205.726562 167.476562 204.574219 166.054688 C 203.421875 164.628906 201.820312 163.785156 200.136719 163.558594 " fill-opacity="1" fill-rule="evenodd"/><path fill="#a1bd66" d="M 204.097656 162.152344 C 205.539062 163.050781 207.308594 163.425781 209.105469 163.066406 C 210.898438 162.707031 212.390625 161.683594 213.375 160.300781 C 211.933594 159.398438 210.164062 159.023438 208.367188 159.382812 C 206.574219 159.742188 205.082031 160.769531 204.097656 162.152344 " fill-opacity="1" fill-rule="evenodd"/><path fill="#a1bd66" d="M 206.632812 164.984375 C 207.09375 166.617188 208.152344 168.082031 209.726562 169.023438 C 211.296875 169.964844 213.089844 170.203125 214.75 169.839844 C 214.285156 168.207031 213.222656 166.738281 211.652344 165.800781 C 210.082031 164.859375 208.289062 164.617188 206.632812 164.984375 " fill-opacity="1" fill-rule="evenodd"/><path fill="#a1bd66" d="M 161.5 145.039062 C 163.117188 144.527344 164.925781 144.613281 166.574219 145.414062 C 168.222656 146.214844 169.40625 147.582031 170.007812 149.167969 C 168.386719 149.679688 166.578125 149.59375 164.933594 148.792969 C 163.285156 147.992188 162.101562 146.625 161.5 145.039062 " fill-opacity="1" fill-rule="evenodd"/><path fill="#a1bd66" d="M 166.871094 141.03125 C 168.488281 141.539062 170.296875 141.453125 171.945312 140.65625 C 173.589844 139.855469 174.777344 138.484375 175.378906 136.898438 C 173.761719 136.390625 171.949219 136.476562 170.304688 137.277344 C 168.65625 138.074219 167.472656 139.445312 166.871094 141.03125 " fill-opacity="1" fill-rule="evenodd"/><path fill="#a1bd66" d="M 176.765625 141.78125 C 178.386719 141.273438 180.195312 141.359375 181.839844 142.160156 C 183.488281 142.960938 184.671875 144.328125 185.273438 145.914062 C 183.65625 146.421875 181.847656 146.339844 180.199219 145.539062 C 178.550781 144.738281 177.367188 143.367188 176.765625 141.78125 " fill-opacity="1" fill-rule="evenodd"/><path fill="#a1bd66" d="M 178.113281 140.121094 C 178.898438 138.617188 180.238281 137.398438 181.96875 136.800781 C 183.699219 136.199219 185.503906 136.332031 187.050781 137.027344 C 186.265625 138.53125 184.925781 139.75 183.199219 140.351562 C 181.464844 140.949219 179.660156 140.816406 178.113281 140.121094 " fill-opacity="1" fill-rule="evenodd"/><path fill="#a1bd66" d="M 140.246094 145.425781 C 138.902344 146.457031 137.929688 147.988281 137.636719 149.796875 C 137.347656 151.605469 137.789062 153.359375 138.738281 154.765625 C 140.085938 153.730469 141.054688 152.203125 141.347656 150.394531 C 141.640625 148.585938 141.199219 146.828125 140.246094 145.425781 " fill-opacity="1" fill-rule="evenodd"/><path fill="#a1bd66" d="M 130.011719 160.855469 C 131.5 160.039062 133.289062 159.765625 135.0625 160.222656 C 136.835938 160.679688 138.269531 161.785156 139.171875 163.222656 C 137.683594 164.042969 135.894531 164.316406 134.125 163.859375 C 132.351562 163.402344 130.917969 162.292969 130.011719 160.855469 " fill-opacity="1" fill-rule="evenodd"/><path fill="#a1bd66" d="M 172 163.664062 C 172.789062 162.160156 174.125 160.941406 175.855469 160.34375 C 177.585938 159.742188 179.390625 159.875 180.9375 160.574219 C 180.152344 162.074219 178.816406 163.292969 177.082031 163.894531 C 175.355469 164.492188 173.546875 164.363281 172 163.664062 " fill-opacity="1" fill-rule="evenodd"/><path fill="#a1bd66" d="M 171.511719 165.839844 C 171.222656 167.507812 171.546875 169.292969 172.558594 170.816406 C 173.574219 172.34375 175.085938 173.335938 176.742188 173.71875 C 177.027344 172.046875 176.703125 170.265625 175.691406 168.738281 C 174.679688 167.214844 173.164062 166.222656 171.511719 165.839844 " fill-opacity="1" fill-rule="evenodd"/><path fill="#a1bd66" d="M 177.886719 166.171875 C 178.867188 167.558594 180.355469 168.589844 182.152344 168.949219 C 183.945312 169.3125 185.71875 168.941406 187.160156 168.046875 C 186.179688 166.660156 184.691406 165.628906 182.894531 165.269531 C 181.101562 164.90625 179.328125 165.273438 177.886719 166.171875 " fill-opacity="1" fill-rule="evenodd"/><path fill="#a1bd66" d="M 175.925781 150.03125 C 177.246094 151.101562 178.960938 151.6875 180.785156 151.550781 C 182.609375 151.410156 184.214844 150.570312 185.359375 149.316406 C 184.042969 148.25 182.328125 147.664062 180.5 147.800781 C 178.675781 147.941406 177.070312 148.777344 175.925781 150.03125 " fill-opacity="1" fill-rule="evenodd"/><path fill="#a1bd66" d="M 192.238281 126.34375 C 193.273438 127.691406 194.800781 128.664062 196.605469 128.953125 C 198.414062 129.246094 200.171875 128.808594 201.574219 127.855469 C 200.542969 126.511719 199.015625 125.539062 197.207031 125.246094 C 195.402344 124.953125 193.644531 125.394531 192.238281 126.34375 " fill-opacity="1" fill-rule="evenodd"/><path fill="#a1bd66" d="M 129.070312 180.949219 C 129.539062 179.320312 130.609375 177.859375 132.191406 176.929688 C 133.765625 176 135.5625 175.769531 137.21875 176.148438 C 136.746094 177.777344 135.671875 179.238281 134.09375 180.167969 C 132.519531 181.09375 130.722656 181.324219 129.070312 180.949219 " fill-opacity="1" fill-rule="evenodd"/><path fill="#a1bd66" d="M 162.617188 171.523438 C 162.875 173.203125 163.746094 174.785156 165.191406 175.914062 C 166.632812 177.039062 168.382812 177.503906 170.074219 177.34375 C 169.816406 175.664062 168.945312 174.078125 167.5 172.953125 C 166.058594 171.824219 164.304688 171.367188 162.617188 171.523438 " fill-opacity="1" fill-rule="evenodd"/><path fill="#a1bd66" d="M 152.238281 125.601562 C 150.890625 126.632812 149.921875 128.164062 149.628906 129.972656 C 149.339844 131.777344 149.777344 133.535156 150.730469 134.9375 C 152.078125 133.90625 153.046875 132.375 153.339844 130.570312 C 153.628906 128.761719 153.191406 127.003906 152.238281 125.601562 " fill-opacity="1" fill-rule="evenodd"/><path fill="#a1bd66" d="M 139.382812 140.980469 C 141.066406 141.203125 142.832031 140.808594 144.316406 139.734375 C 145.800781 138.660156 146.730469 137.109375 147.050781 135.441406 C 145.367188 135.222656 143.601562 135.617188 142.117188 136.691406 C 140.632812 137.761719 139.699219 139.3125 139.382812 140.980469 " fill-opacity="1" fill-rule="evenodd"/><g clip-path="url(#aa45d31f61)"><g clip-path="url(#dc5dcafecf)"><path stroke-linecap="butt" transform="matrix(0.75, 0, 0, 0.75, 63.84282, 63.842816)" fill="none" stroke-linejoin="miter" d="M 164.87625 0.00124559 C 73.818953 0.00124559 0.00123959 73.818959 0.00123959 164.876256 C 0.00123959 255.933554 73.818953 329.751267 164.87625 329.751267 C 255.933548 329.751267 329.751261 255.933554 329.751261 164.876256 C 329.751261 73.818959 255.933548 0.00124559 164.87625 0.00124559 Z M 164.87625 0.00124559 " stroke="#3a5433" stroke-width="4" stroke-opacity="1" stroke-miterlimit="4"/></g></g><g fill="#495436" fill-opacity="1"><g transform="translate(105.67499, 266.325583)"><g><path d="M 2.875 -16 L 5.859375 -12.65625 L 5.859375 -4.875 C 5.859375 -3 7.046875 -2.0625 9.421875 -2.0625 C 11.804688 -2.0625 13 -3 13 -4.875 L 13 -13.21875 C 13 -14.613281 13.503906 -15.773438 14.515625 -16.703125 C 15.523438 -17.628906 17.097656 -18.09375 19.234375 -18.09375 C 23.492188 -18.09375 25.625 -16.46875 25.625 -13.21875 L 25.625 0 L 22.78125 0 L 22.78125 -13.21875 C 22.78125 -15.09375 21.617188 -16.03125 19.296875 -16.03125 C 16.992188 -16.03125 15.84375 -15.09375 15.84375 -13.21875 L 15.84375 -4.875 C 15.84375 -3.476562 15.335938 -2.316406 14.328125 -1.390625 C 13.316406 -0.460938 11.679688 0 9.421875 0 C 7.171875 0 5.539062 -0.460938 4.53125 -1.390625 C 3.53125 -2.316406 3.03125 -3.476562 3.03125 -4.875 L 3.03125 -12.171875 C 2.363281 -12.953125 1.878906 -13.53125 1.578125 -13.90625 C 1.285156 -14.289062 1.097656 -14.554688 1.015625 -14.703125 C 0.929688 -14.859375 0.890625 -15.007812 0.890625 -15.15625 C 0.890625 -15.257812 0.9375 -15.40625 1.03125 -15.59375 C 1.125 -15.78125 1.3125 -16.054688 1.59375 -16.421875 C 1.882812 -16.796875 2.3125 -17.351562 2.875 -18.09375 L 6.609375 -18.09375 L 6.609375 -16.03125 L 2.875 -16.03125 Z M 2.875 -16 "/></g></g></g><g fill="#495436" fill-opacity="1"><g transform="translate(134.013638, 267.220808)"><g><path d="M -13.921875 -21.125 C -14.929688 -21.125 -15.4375 -21.875 -15.4375 -23.375 C -15.4375 -24.382812 -15.035156 -25.265625 -14.234375 -26.015625 C -13.429688 -26.765625 -12.269531 -27.140625 -10.75 -27.140625 C -9.238281 -27.140625 -7.78125 -26.765625 -6.375 -26.015625 C -4.96875 -25.265625 -3.71875 -24.382812 -2.625 -23.375 L -2.625 -21.125 Z M -13.15625 -23.0625 L -5.5 -23.0625 C -6.625 -23.863281 -7.628906 -24.414062 -8.515625 -24.71875 C -9.398438 -25.03125 -10.144531 -25.1875 -10.75 -25.1875 C -11.507812 -25.1875 -12.097656 -25.03125 -12.515625 -24.71875 C -12.941406 -24.414062 -13.15625 -23.863281 -13.15625 -23.0625 Z M -13.15625 -23.0625 "/></g></g></g><g fill="#495436" fill-opacity="1"><g transform="translate(134.319767, 266.325583)"><g><path d="M 4.21875 -11.140625 L 4.21875 -12.171875 C 3.5625 -12.953125 3.082031 -13.53125 2.78125 -13.90625 C 2.488281 -14.289062 2.300781 -14.554688 2.21875 -14.703125 C 2.132812 -14.859375 2.09375 -15.007812 2.09375 -15.15625 C 2.09375 -15.257812 2.140625 -15.40625 2.234375 -15.59375 C 2.328125 -15.78125 2.515625 -16.054688 2.796875 -16.421875 C 3.085938 -16.796875 3.507812 -17.351562 4.0625 -18.09375 L 7.8125 -18.09375 L 7.8125 -16.03125 L 4.0625 -16.03125 L 4.0625 -16 L 7.0625 -12.65625 L 7.0625 -11.140625 Z M 7.078125 -11.609375 L 7.078125 -2.125 C 7.078125 -1.363281 6.890625 -0.816406 6.515625 -0.484375 C 6.140625 -0.160156 5.613281 0 4.9375 0 L 4.390625 0 C 3.804688 0 3.242188 -0.0859375 2.703125 -0.265625 C 2.160156 -0.441406 1.703125 -0.769531 1.328125 -1.25 C 0.953125 -1.726562 0.765625 -2.421875 0.765625 -3.328125 C 0.765625 -4.148438 0.953125 -4.800781 1.328125 -5.28125 C 1.703125 -5.769531 2.148438 -6.128906 2.671875 -6.359375 C 3.191406 -6.585938 3.710938 -6.722656 4.234375 -6.765625 L 4.234375 -11.609375 Z M 4.234375 -2.0625 L 4.234375 -4.65625 C 3.941406 -4.65625 3.632812 -4.5625 3.3125 -4.375 C 3 -4.195312 2.84375 -3.859375 2.84375 -3.359375 C 2.84375 -2.867188 2.988281 -2.53125 3.28125 -2.34375 C 3.582031 -2.15625 3.898438 -2.0625 4.234375 -2.0625 Z M 4.234375 -2.0625 "/></g></g></g><g fill="#495436" fill-opacity="1"><g transform="translate(143.209526, 266.325583)"><g><path d="M 6.953125 -15.84375 C 6.222656 -15.84375 5.859375 -15.203125 5.859375 -13.921875 L 5.859375 -6.765625 C 6.804688 -6.765625 7.585938 -6.5 8.203125 -5.96875 C 8.828125 -5.445312 9.140625 -4.617188 9.140625 -3.484375 C 9.140625 -2.421875 8.828125 -1.570312 8.203125 -0.9375 C 7.585938 -0.3125 6.828125 0 5.921875 0 L 5.0625 0 C 4.507812 0 4.03125 -0.148438 3.625 -0.453125 C 3.226562 -0.765625 3.03125 -1.234375 3.03125 -1.859375 L 3.03125 -13.921875 C 3.03125 -14.679688 3.140625 -15.375 3.359375 -16 C 3.585938 -16.632812 3.960938 -17.140625 4.484375 -17.515625 C 5.015625 -17.898438 5.722656 -18.09375 6.609375 -18.09375 C 7.617188 -18.09375 8.675781 -17.460938 9.78125 -16.203125 L 9.84375 -16.203125 C 10.425781 -16.828125 10.988281 -17.296875 11.53125 -17.609375 C 12.070312 -17.929688 12.726562 -18.09375 13.5 -18.09375 C 14.09375 -18.09375 14.582031 -17.972656 14.96875 -17.734375 C 15.363281 -17.492188 15.6875 -17.179688 15.9375 -16.796875 C 16.425781 -17.179688 17.03125 -17.519531 17.75 -17.8125 C 18.46875 -18.101562 19.332031 -18.25 20.34375 -18.25 C 21.925781 -18.25 23.15625 -18.019531 24.03125 -17.5625 C 24.90625 -17.113281 25.515625 -16.507812 25.859375 -15.75 C 26.203125 -14.988281 26.375 -14.144531 26.375 -13.21875 L 26.375 0 L 23.53125 0 L 23.53125 -13.21875 C 23.53125 -14.144531 23.238281 -14.867188 22.65625 -15.390625 C 22.082031 -15.910156 21.21875 -16.171875 20.0625 -16.171875 C 19.175781 -16.171875 18.484375 -16.046875 17.984375 -15.796875 C 17.484375 -15.554688 16.992188 -15.238281 16.515625 -14.84375 C 16.554688 -14.5625 16.578125 -14.253906 16.578125 -13.921875 L 16.578125 0 L 13.734375 0 L 13.734375 -13.921875 C 13.734375 -15.203125 13.375 -15.84375 12.65625 -15.84375 C 12.25 -15.84375 11.890625 -15.679688 11.578125 -15.359375 C 11.265625 -15.035156 10.972656 -14.71875 10.703125 -14.40625 C 10.441406 -14.101562 10.132812 -13.953125 9.78125 -13.953125 C 9.476562 -13.953125 9.175781 -14.101562 8.875 -14.40625 C 8.570312 -14.71875 8.269531 -15.035156 7.96875 -15.359375 C 7.675781 -15.679688 7.335938 -15.84375 6.953125 -15.84375 Z M 5.859375 -2.0625 C 6.765625 -2.0625 7.21875 -2.523438 7.21875 -3.453125 C 7.21875 -4.234375 6.765625 -4.632812 5.859375 -4.65625 Z M 5.859375 -2.0625 "/></g></g></g><g fill="#495436" fill-opacity="1"><g transform="translate(173.184289, 267.004721)"><g><path d="M -26.375 4.5 L -26.375 2.15625 C -26.375 1.6875 -26.226562 1.332031 -25.9375 1.09375 C -25.644531 0.851562 -25.273438 0.734375 -24.828125 0.734375 L -24.359375 0.734375 C -23.347656 0.734375 -22.414062 0.90625 -21.5625 1.25 C -20.707031 1.59375 -19.953125 1.863281 -19.296875 2.0625 C -18.679688 1.84375 -18.003906 1.566406 -17.265625 1.234375 C -16.535156 0.898438 -15.710938 0.734375 -14.796875 0.734375 L -4.453125 0.734375 C -3.503906 0.734375 -3.03125 1.207031 -3.03125 2.15625 L -3.03125 4.5 L -5.5625 4.5 L -5.5625 2.28125 L -12.96875 2.28125 L -12.96875 4.5 L -15.5 4.5 L -15.5 2.28125 L -19.296875 3.609375 L -23.828125 2.28125 L -23.828125 3.421875 L -22.5625 3.421875 L -22.5625 4.5 Z M -8.671875 7.65625 C -9.847656 7.65625 -10.992188 7.597656 -12.109375 7.484375 C -13.234375 7.367188 -14.332031 7.238281 -15.40625 7.09375 C -16.5 6.957031 -17.597656 6.851562 -18.703125 6.78125 C -19.816406 6.707031 -20.960938 6.671875 -22.140625 6.671875 L -26.375 6.671875 L -26.375 5.21875 L -22.140625 5.21875 C -20.492188 5.21875 -18.960938 5.269531 -17.546875 5.375 C -16.140625 5.476562 -14.828125 5.648438 -13.609375 5.890625 C -12.421875 6.140625 -11.335938 6.320312 -10.359375 6.4375 C -9.378906 6.550781 -8.53125 6.609375 -7.8125 6.609375 C -7.113281 6.609375 -6.5625 6.5625 -6.15625 6.46875 C -5.757812 6.375 -5.5625 6.265625 -5.5625 6.140625 L -8.09375 6.140625 L -8.09375 4.96875 L -3.03125 4.96875 L -3.03125 5.65625 C -3.03125 6.988281 -4.910156 7.65625 -8.671875 7.65625 Z M -8.671875 7.65625 "/></g></g></g><g fill="#495436" fill-opacity="1"><g transform="translate(172.595113, 266.325583)"><g><path d="M 3.296875 -16 L 7.078125 -12.65625 L 7.078125 -2.125 C 7.078125 -1.363281 6.890625 -0.816406 6.515625 -0.484375 C 6.140625 -0.160156 5.613281 0 4.9375 0 L 4.390625 0 C 3.804688 0 3.242188 -0.0859375 2.703125 -0.265625 C 2.160156 -0.441406 1.703125 -0.769531 1.328125 -1.25 C 0.953125 -1.726562 0.765625 -2.421875 0.765625 -3.328125 C 0.765625 -4.148438 0.953125 -4.800781 1.328125 -5.28125 C 1.703125 -5.769531 2.148438 -6.128906 2.671875 -6.359375 C 3.191406 -6.585938 3.710938 -6.722656 4.234375 -6.765625 L 4.234375 -12.171875 C 3.367188 -12.992188 2.734375 -13.597656 2.328125 -13.984375 C 1.929688 -14.378906 1.675781 -14.65625 1.5625 -14.8125 C 1.445312 -14.976562 1.390625 -15.125 1.390625 -15.25 C 1.390625 -15.375 1.4375 -15.519531 1.53125 -15.6875 C 1.625 -15.851562 1.804688 -16.117188 2.078125 -16.484375 C 2.359375 -16.859375 2.765625 -17.394531 3.296875 -18.09375 L 4.8125 -18.09375 C 5.53125 -18.09375 5.890625 -18.335938 5.890625 -18.828125 L 5.890625 -20.8125 L 8.734375 -20.8125 L 8.734375 -18.828125 C 8.734375 -16.960938 7.425781 -16.03125 4.8125 -16.03125 L 3.296875 -16.03125 Z M 4.234375 -2.0625 L 4.234375 -4.65625 C 3.941406 -4.65625 3.632812 -4.5625 3.3125 -4.375 C 3 -4.195312 2.84375 -3.859375 2.84375 -3.359375 C 2.84375 -2.867188 2.988281 -2.53125 3.28125 -2.34375 C 3.582031 -2.15625 3.898438 -2.0625 4.234375 -2.0625 Z M 4.234375 -2.0625 "/></g></g></g><g fill="#495436" fill-opacity="1"><g transform="translate(182.657822, 266.325583)"><g><path d="M 3.03125 -16.03125 L 3.03125 -18.09375 L 16.578125 -18.09375 L 16.578125 -16.03125 Z M 9.78125 -11.828125 C 7.164062 -11.828125 5.859375 -10.898438 5.859375 -9.046875 L 5.859375 -6.765625 C 6.804688 -6.765625 7.585938 -6.5 8.203125 -5.96875 C 8.828125 -5.445312 9.140625 -4.617188 9.140625 -3.484375 C 9.140625 -2.421875 8.828125 -1.570312 8.203125 -0.9375 C 7.585938 -0.3125 6.828125 0 5.921875 0 L 5.0625 0 C 4.507812 0 4.03125 -0.148438 3.625 -0.453125 C 3.226562 -0.765625 3.03125 -1.234375 3.03125 -1.859375 L 3.03125 -9.046875 C 3.03125 -12.296875 5.28125 -13.921875 9.78125 -13.921875 C 14.3125 -13.921875 16.578125 -12.296875 16.578125 -9.046875 L 16.578125 0 L 13.734375 0 L 13.734375 -9.046875 C 13.734375 -10.898438 12.414062 -11.828125 9.78125 -11.828125 Z M 5.859375 -2.0625 C 6.765625 -2.0625 7.21875 -2.523438 7.21875 -3.453125 C 7.21875 -4.234375 6.765625 -4.632812 5.859375 -4.65625 Z M 5.859375 -2.0625 "/></g></g></g><g fill="#495436" fill-opacity="1"><g transform="translate(202.72332, 267.128202)"><g><path d="M -16.703125 7.53125 C -16.703125 3.0625 -15.097656 0.828125 -11.890625 0.828125 C -10.984375 0.828125 -10.164062 1.046875 -9.4375 1.484375 C -8.707031 1.929688 -8.019531 2.488281 -7.375 3.15625 C -6.90625 3.644531 -6.523438 4.035156 -6.234375 4.328125 C -5.941406 4.628906 -5.675781 4.863281 -5.4375 5.03125 C -5.207031 5.195312 -4.929688 5.3125 -4.609375 5.375 C -4.296875 5.4375 -3.867188 5.46875 -3.328125 5.46875 L -3.328125 7.53125 C -4.335938 7.53125 -5.148438 7.425781 -5.765625 7.21875 C -6.390625 7.019531 -6.910156 6.734375 -7.328125 6.359375 C -7.753906 5.984375 -8.203125 5.550781 -8.671875 5.0625 C -9.191406 4.507812 -9.613281 4.066406 -9.9375 3.734375 C -10.269531 3.398438 -10.578125 3.164062 -10.859375 3.03125 C -11.148438 2.90625 -11.492188 2.84375 -11.890625 2.84375 C -12.359375 2.84375 -12.828125 3.039062 -13.296875 3.4375 C -13.773438 3.84375 -14.015625 4.550781 -14.015625 5.5625 L -11.578125 5.5625 L -11.578125 7.53125 Z M -16.703125 7.53125 "/></g></g></g><g fill="#495436" fill-opacity="1"><g transform="translate(201.766353, 275.463094)"><g><path d="M -9.90625 7.53125 L -9.90625 2.84375 L -11.515625 2.84375 L -11.515625 1.046875 L -7.078125 1.046875 L -7.078125 7.53125 Z M -9.90625 7.53125 "/></g></g></g><g fill="#495436" fill-opacity="1"><g transform="translate(202.258506, 266.325583)"><g><path d="M 14.046875 -13.546875 C 14.828125 -13.546875 15.441406 -13.390625 15.890625 -13.078125 C 16.347656 -12.773438 16.578125 -12.328125 16.578125 -11.734375 L 16.578125 -4.875 C 16.578125 -3.4375 16.210938 -2.265625 15.484375 -1.359375 C 14.753906 -0.453125 13.75 0 12.46875 0 C 11.789062 0 11.175781 -0.179688 10.625 -0.546875 C 10.082031 -0.921875 9.566406 -1.367188 9.078125 -1.890625 C 8.660156 -2.335938 8.3125 -2.703125 8.03125 -2.984375 C 7.757812 -3.273438 7.460938 -3.5 7.140625 -3.65625 C 6.828125 -3.8125 6.398438 -3.910156 5.859375 -3.953125 L 5.859375 0 L 3.03125 0 C 2.019531 -1.625 1.515625 -3.035156 1.515625 -4.234375 C 1.515625 -5.359375 2.019531 -5.953125 3.03125 -6.015625 L 3.03125 -11.859375 C 2.488281 -12.535156 2.097656 -13.054688 1.859375 -13.421875 C 1.628906 -13.796875 1.515625 -14.117188 1.515625 -14.390625 C 1.515625 -14.597656 1.539062 -14.773438 1.59375 -14.921875 C 1.644531 -15.078125 1.742188 -15.265625 1.890625 -15.484375 C 2.046875 -15.703125 2.285156 -16.007812 2.609375 -16.40625 C 2.929688 -16.8125 3.359375 -17.375 3.890625 -18.09375 L 16.578125 -18.09375 L 16.578125 -16.03125 L 3.953125 -16.03125 C 3.703125 -15.757812 3.578125 -15.5625 3.578125 -15.4375 C 3.578125 -15.164062 3.75 -14.8125 4.09375 -14.375 C 4.445312 -13.945312 5.035156 -13.269531 5.859375 -12.34375 L 5.859375 -6.015625 C 6.609375 -5.953125 7.210938 -5.851562 7.671875 -5.71875 C 8.128906 -5.59375 8.519531 -5.414062 8.84375 -5.1875 C 9.164062 -4.957031 9.488281 -4.671875 9.8125 -4.328125 C 10.0625 -4.035156 10.320312 -3.710938 10.59375 -3.359375 C 10.875 -3.015625 11.164062 -2.710938 11.46875 -2.453125 C 11.769531 -2.191406 12.082031 -2.0625 12.40625 -2.0625 C 12.78125 -2.0625 13.0625 -2.210938 13.25 -2.515625 C 13.445312 -2.816406 13.578125 -3.179688 13.640625 -3.609375 C 13.703125 -4.046875 13.734375 -4.46875 13.734375 -4.875 L 13.734375 -7.5625 C 12.691406 -7.5625 11.851562 -7.800781 11.21875 -8.28125 C 10.59375 -8.769531 10.28125 -9.476562 10.28125 -10.40625 C 10.28125 -11.414062 10.648438 -12.191406 11.390625 -12.734375 C 12.128906 -13.273438 13.015625 -13.546875 14.046875 -13.546875 Z M 13.734375 -9.65625 L 13.734375 -11.484375 C 12.804688 -11.484375 12.34375 -11.175781 12.34375 -10.5625 C 12.34375 -9.957031 12.804688 -9.65625 13.734375 -9.65625 Z M 22.640625 0 L 22.640625 -14.140625 C 22.640625 -14.835938 22.472656 -15.328125 22.140625 -15.609375 C 21.804688 -15.890625 21.171875 -16.03125 20.234375 -16.03125 L 15.96875 -16.03125 L 15.96875 -18.09375 L 21.640625 -18.09375 C 22.671875 -18.09375 23.460938 -17.941406 24.015625 -17.640625 C 24.578125 -17.347656 24.957031 -16.90625 25.15625 -16.3125 C 25.363281 -15.726562 25.46875 -15.003906 25.46875 -14.140625 L 25.46875 0 Z M 22.640625 0 "/></g></g></g><g fill="#495436" fill-opacity="1"><g transform="translate(221.428767, 267.128202)"><g><path d="M -16.171875 7.53125 C -16.171875 6.113281 -16.050781 4.957031 -15.8125 4.0625 C -15.582031 3.164062 -15.269531 2.472656 -14.875 1.984375 C -14.488281 1.503906 -14.066406 1.175781 -13.609375 1 C -13.160156 0.820312 -12.71875 0.734375 -12.28125 0.734375 C -11.457031 0.734375 -10.804688 0.960938 -10.328125 1.421875 C -9.847656 1.890625 -9.429688 2.488281 -9.078125 3.21875 C -8.679688 4 -8.394531 4.613281 -8.21875 5.0625 C -8.050781 5.519531 -7.757812 5.75 -7.34375 5.75 C -6.769531 5.75 -6.375 5.3125 -6.15625 4.4375 C -5.9375 3.5625 -5.835938 2.328125 -5.859375 0.734375 L -3.328125 0.734375 C -3.328125 2.585938 -3.515625 4.007812 -3.890625 5 C -4.265625 5.988281 -4.75 6.664062 -5.34375 7.03125 C -5.9375 7.40625 -6.582031 7.59375 -7.28125 7.59375 C -8.1875 7.59375 -8.863281 7.351562 -9.3125 6.875 C -9.769531 6.40625 -10.175781 5.800781 -10.53125 5.0625 C -10.894531 4.238281 -11.1875 3.625 -11.40625 3.21875 C -11.625 2.820312 -11.925781 2.625 -12.3125 2.625 C -12.832031 2.625 -13.179688 3.019531 -13.359375 3.8125 C -13.546875 4.601562 -13.640625 5.84375 -13.640625 7.53125 Z M -16.171875 7.53125 "/></g></g></g><g fill="#495436" fill-opacity="1"><g transform="translate(230.748949, 266.325583)"><g><path d="M 3.03125 -16.03125 L 3.03125 -18.09375 L 16.578125 -18.09375 L 16.578125 -16.03125 Z M 9.78125 -11.828125 C 7.164062 -11.828125 5.859375 -10.898438 5.859375 -9.046875 L 5.859375 -6.765625 C 6.804688 -6.765625 7.585938 -6.5 8.203125 -5.96875 C 8.828125 -5.445312 9.140625 -4.617188 9.140625 -3.484375 C 9.140625 -2.421875 8.828125 -1.570312 8.203125 -0.9375 C 7.585938 -0.3125 6.828125 0 5.921875 0 L 5.0625 0 C 4.507812 0 4.03125 -0.148438 3.625 -0.453125 C 3.226562 -0.765625 3.03125 -1.234375 3.03125 -1.859375 L 3.03125 -9.046875 C 3.03125 -12.296875 5.28125 -13.921875 9.78125 -13.921875 C 14.3125 -13.921875 16.578125 -12.296875 16.578125 -9.046875 L 16.578125 0 L 13.734375 0 L 13.734375 -9.046875 C 13.734375 -10.898438 12.414062 -11.828125 9.78125 -11.828125 Z M 5.859375 -2.0625 C 6.765625 -2.0625 7.21875 -2.523438 7.21875 -3.453125 C 7.21875 -4.234375 6.765625 -4.632812 5.859375 -4.65625 Z M 5.859375 -2.0625 "/></g></g></g><g fill="#495436" fill-opacity="1"><g transform="translate(250.349633, 266.325583)"><g><path d="M 0.734375 -19.609375 L 0.734375 -21.546875 L 3.703125 -21.546875 C 4.566406 -21.546875 5.125 -21.675781 5.375 -21.9375 C 5.625 -22.195312 5.75 -22.488281 5.75 -22.8125 C 5.75 -23.570312 5.332031 -23.953125 4.5 -23.953125 C 4.070312 -23.953125 3.753906 -23.859375 3.546875 -23.671875 C 3.335938 -23.492188 3.164062 -23.289062 3.03125 -23.0625 L 0.734375 -23.0625 L 0.734375 -26.3125 C 0.734375 -26.757812 0.488281 -26.984375 0 -26.984375 L 0 -28.65625 L 1.484375 -28.65625 C 2.097656 -28.65625 2.507812 -28.53125 2.71875 -28.28125 C 2.925781 -28.03125 3.03125 -27.648438 3.03125 -27.140625 L 3.03125 -25.1875 C 3.207031 -25.351562 3.46875 -25.5 3.8125 -25.625 C 4.15625 -25.75 4.550781 -25.8125 5 -25.8125 C 5.945312 -25.8125 6.707031 -25.53125 7.28125 -24.96875 C 7.863281 -24.414062 8.15625 -23.65625 8.15625 -22.6875 C 8.15625 -21.71875 7.832031 -20.960938 7.1875 -20.421875 C 6.550781 -19.878906 5.546875 -19.609375 4.171875 -19.609375 Z M 2.84375 -16 L 5.828125 -12.65625 L 5.828125 -3.15625 C 5.828125 -2.738281 5.898438 -2.453125 6.046875 -2.296875 C 6.191406 -2.140625 6.453125 -2.0625 6.828125 -2.0625 L 8.28125 -2.0625 L 8.28125 0 L 5.28125 0 C 3.757812 0 3 -0.515625 3 -1.546875 L 3 -12.171875 C 2.351562 -12.953125 1.875 -13.53125 1.5625 -13.90625 C 1.257812 -14.289062 1.066406 -14.554688 0.984375 -14.703125 C 0.898438 -14.859375 0.859375 -15.007812 0.859375 -15.15625 C 0.859375 -15.257812 0.910156 -15.40625 1.015625 -15.59375 C 1.117188 -15.78125 1.304688 -16.054688 1.578125 -16.421875 C 1.859375 -16.796875 2.28125 -17.351562 2.84375 -18.09375 L 6.578125 -18.09375 L 6.578125 -16.03125 L 2.84375 -16.03125 Z M 2.84375 -16 "/></g></g></g><g fill="#495436" fill-opacity="1"><g transform="translate(259.239392, 266.325583)"><g><path d="M 3.296875 -16 L 7.078125 -12.65625 L 7.078125 -2.125 C 7.078125 -1.363281 6.890625 -0.816406 6.515625 -0.484375 C 6.140625 -0.160156 5.613281 0 4.9375 0 L 4.390625 0 C 3.804688 0 3.242188 -0.0859375 2.703125 -0.265625 C 2.160156 -0.441406 1.703125 -0.769531 1.328125 -1.25 C 0.953125 -1.726562 0.765625 -2.421875 0.765625 -3.328125 C 0.765625 -4.148438 0.953125 -4.800781 1.328125 -5.28125 C 1.703125 -5.769531 2.148438 -6.128906 2.671875 -6.359375 C 3.191406 -6.585938 3.710938 -6.722656 4.234375 -6.765625 L 4.234375 -12.171875 C 3.367188 -12.992188 2.734375 -13.597656 2.328125 -13.984375 C 1.929688 -14.378906 1.675781 -14.65625 1.5625 -14.8125 C 1.445312 -14.976562 1.390625 -15.125 1.390625 -15.25 C 1.390625 -15.375 1.4375 -15.519531 1.53125 -15.6875 C 1.625 -15.851562 1.804688 -16.117188 2.078125 -16.484375 C 2.359375 -16.859375 2.765625 -17.394531 3.296875 -18.09375 L 4.8125 -18.09375 C 5.53125 -18.09375 5.890625 -18.335938 5.890625 -18.828125 L 5.890625 -20.8125 L 8.734375 -20.8125 L 8.734375 -18.828125 C 8.734375 -16.960938 7.425781 -16.03125 4.8125 -16.03125 L 3.296875 -16.03125 Z M 4.234375 -2.0625 L 4.234375 -4.65625 C 3.941406 -4.65625 3.632812 -4.5625 3.3125 -4.375 C 3 -4.195312 2.84375 -3.859375 2.84375 -3.359375 C 2.84375 -2.867188 2.988281 -2.53125 3.28125 -2.34375 C 3.582031 -2.15625 3.898438 -2.0625 4.234375 -2.0625 Z M 4.234375 -2.0625 "/></g></g></g></svg>